<svg width="20" height="18" viewBox="0 0 20 18" fill="none" xmlns="http://www.w3.org/2000/svg">
<path d="M19 16.5H12.9M8.5 16.5H2L6.5 11.28M8.5 16.5L11 13.5M8.5 16.5H12.9M8.25 9.25L9.8125 7.4375M8.25 9.25L9.61415 10.3957M8.25 9.25L6.5 11.28M11.375 5.625L12.738 6.68615M11.375 5.625L9.8125 7.4375M11.375 5.625L12.9375 3.8125M9.8125 7.4375L11.1596 8.56042M12.9375 3.8125L14.5 2L18 5L11 13.5M12.9375 3.8125L14.2545 4.88527M11 13.5C11.5 13.5263 12 14 12.5 14.5C13 15 12.9 16 12.9 16.5M6.5 11.28L7.88223 12.4524" stroke="#2C2C2C" stroke-width="1.5"/>
</svg>
